<svg xmlns="http://www.w3.org/2000/svg" viewBox="0 0 160 34.5"><defs><style>.cls-1{fill:#fff;}</style></defs><title>资源 112</title><g id="图层_2" data-name="图层 2"><g id="图层_1-2" data-name="图层 1"><path class="cls-1" d="M15.43,34.25c8.54,1.24,9.74-4.25,13-4.64C23.56,26.24,21.47,33.42,15.43,34.25Z"/><path class="cls-1" d="M9.81,34.5h0Z"/><path class="cls-1" d="M16.25,9.17s0,0,0,0c.09.24.19.49.27.74a1.34,1.34,0,0,1,.07.18,24.16,24.16,0,0,1,1.15,5,24.5,24.5,0,0,1-.65,9.31h0a1.8,1.8,0,0,0-.05.62,1.54,1.54,0,0,0,1.51,1.34h.27l.52-.08A10.28,10.28,0,0,1,26,27.78l.05,0a1,1,0,0,0,1.53-1s0,0,0,0v-.08c0-.15,0-.29-.05-.43a43.22,43.22,0,0,0-3.89-13.36,42.85,42.85,0,0,0-2-3.78,22.68,22.68,0,0,0-7.41-6.95c-.6-.35-1.22-.67-1.85-1a.6.6,0,0,0-.67,1A21.18,21.18,0,0,1,16.25,9.17Z"/><path class="cls-1" d="M24.61,9.17a.5.5,0,0,0-.38-.1.48.48,0,0,0-.39.56.5.5,0,0,0,.08.2c.29.46.57.94.85,1.42A43,43,0,0,1,29.68,25c.06.37.12.73.17,1.1a1.46,1.46,0,0,1,0,.2h0v.14a2,2,0,0,0,1.91,1.63h0a11.69,11.69,0,0,1,4.88,1.13h0a.53.53,0,0,0,.37.06.56.56,0,0,0,.46-.65.53.53,0,0,0,0-.15h0a51.18,51.18,0,0,0-3.7-8.65q-1.23-2.28-2.67-4.41A27.29,27.29,0,0,0,24.61,9.17Z"/><path class="cls-1" d="M38.46,8.35a13,13,0,0,0-6.54,1.75l-.1.06h0a1.25,1.25,0,0,0,.58,2.37,1.21,1.21,0,0,0,.38-.06l.19-.07h0a9.84,9.84,0,1,1,6,18.48h0l-.21.05h0A72.21,72.21,0,0,1,29,31c-1.69,0-3,1.78-5.39,3.47h15.8a13.08,13.08,0,0,0-.95-26.13Z"/><path class="cls-1" d="M19.45,3.78a.78.78,0,0,0,.22,0h0l.25-.09a7.48,7.48,0,0,1,3.71-1,7.6,7.6,0,0,1,7.53,6.55A14.78,14.78,0,0,1,35.4,7.52,11.11,11.11,0,0,0,25.13,0,10.54,10.54,0,0,0,19,2a1,1,0,0,0-.47.82A1,1,0,0,0,19.45,3.78Z"/><path class="cls-1" d="M18.12,31.5l0,0,.08-.07h0a14.65,14.65,0,0,1,2.17-1.92c-2.43-1.56-3.85,1.89-8.73,1.93h-.51a7.91,7.91,0,0,1,.51-15.8,7.43,7.43,0,0,1,1.64.18h.25a1.14,1.14,0,0,0,1.14-1.14A1.13,1.13,0,0,0,14,13.61h0l0,0h0l-.06,0h-.06a10.36,10.36,0,0,0-3.07-.45,10.7,10.7,0,0,0-.07,21.4h.07a10.65,10.65,0,0,0,7.42-3Z"/><polygon class="cls-1" points="74.77 8.97 71.94 8.97 71.94 9.78 62.11 9.78 62.11 11.86 71.94 11.86 71.94 12.66 63.51 12.66 63.51 14.77 83.21 14.77 83.21 12.66 74.77 12.66 74.77 11.86 84.6 11.86 84.6 9.78 74.77 9.78 74.77 8.97"/><polygon class="cls-1" points="83.21 21.9 79.95 21.9 79.13 23.2 67.59 23.2 66.76 21.9 63.51 21.9 64.34 23.2 62.11 23.2 62.11 25.31 84.6 25.31 84.6 23.2 82.38 23.2 83.21 21.9"/><path class="cls-1" d="M83.21,15.57H63.51V21.1h19.7ZM80.37,19h-14V17.68h14Z"/><path class="cls-1" d="M152.25,24.26h-2.81v4.83a5.16,5.16,0,0,1-.95,3h2.86a5.27,5.27,0,0,0,.9-3Z"/><path class="cls-1" d="M159.05,24.26h-2.81v4.83a5.27,5.27,0,0,0,.9,3H160a5.16,5.16,0,0,1-.95-3Z"/><rect class="cls-1" x="137.51" y="30.58" width="10.12" height="2.11"/><path class="cls-1" d="M102.18,17.41H99.37v8a5.3,5.3,0,0,0,.91,3h2.86a5.06,5.06,0,0,1-1-3Z"/><path class="cls-1" d="M133.46,25h-19.7v5.59h-1.39v2.08h22.49V30.61h-1.4Zm-14.08,5.59h-2.81V27.12h2.81Zm5.67,0h-2.86V27.12h2.86Zm5.58,0h-2.77V27.12h2.77Z"/><rect class="cls-1" x="119.38" y="14.52" width="2.81" height="9.69"/><path class="cls-1" d="M133.46,14.52h-8.6v6.67a5,5,0,0,1-1,3h2.89a5.39,5.39,0,0,0,.88-3V16.63h5.79Z"/><rect class="cls-1" x="113.76" y="15.53" width="2.84" height="7.68"/><polygon class="cls-1" points="133.46 8.99 130.63 8.99 130.63 10.3 116.6 10.3 116.6 8.99 113.76 8.99 113.76 10.3 112.37 10.3 112.37 12.41 113.76 12.41 113.76 13.72 116.6 13.72 116.6 12.41 130.63 12.41 130.63 13.72 133.46 13.72 133.46 12.41 134.86 12.41 134.86 10.3 133.46 10.3 133.46 8.99"/><path class="cls-1" d="M128.85,17.93v2.4a1.83,1.83,0,0,0,.23.9,1.72,1.72,0,0,0,.6.65l3.79,2.33V21.76l-1.8-1.12V17.93Z"/><path class="cls-1" d="M67,26.15H64.23l-.17.74h-2V29h1.44l-.39,1.68a6.67,6.67,0,0,1-1,2.12h2.8A4.44,4.44,0,0,0,66,30.68L66.36,29h3.77v.67a5.07,5.07,0,0,1-.95,3H72a5,5,0,0,0,.68-1.5,5.69,5.69,0,0,0,.22-1.52V26.89H66.87Z"/><polygon class="cls-1" points="155.75 10.68 155.27 8.99 152.48 8.99 152.96 10.68 148.49 10.68 148.49 12.79 160 12.79 160 10.68 155.75 10.68"/><path class="cls-1" d="M146.78,12.36V10.25h-6.25l-.26-.86h-2.81l.53,1.75a1.73,1.73,0,0,0,.59.89,1.52,1.52,0,0,0,.94.33H144l-1.05,1.57h-5.43V29.57h8a2,2,0,0,0,1.49-.68,2.46,2.46,0,0,0,.61-1.65V13.93h-1.88Zm-3,3.7h1V20h-1V16.06Zm-2.4,0V20h-1.05V16.06Zm-1.05,11.42V22.13h1.05v5.35Zm4.34-.16a.61.61,0,0,1-.4.16h-.49V22.13h1v4.79A.57.57,0,0,1,144.66,27.32Z"/><path class="cls-1" d="M148.49,22.81h4.35v6.86a5.1,5.1,0,0,1-1,3h2.86a5.18,5.18,0,0,0,.91-3V22.81h2.25a2.06,2.06,0,0,0,1.49-.62,2.1,2.1,0,0,0,.61-1.48V14H148.49Zm2.79-6.75h5.93v4.08a.57.57,0,0,1-.16.4.54.54,0,0,1-.39.16h-5.38Z"/><path class="cls-1" d="M96.65,8.92H93.84l-.32,1.42H90.33l-.26-.87H87.26l.52,1.76a1.89,1.89,0,0,0,.59.88,1.51,1.51,0,0,0,.94.34H93L89.13,29.79c-.89,2.42-1.87,2.9-1.87,2.9h3.22a6.7,6.7,0,0,0,1.46-2.9l3.91-17.34H106.9V29.67a5.07,5.07,0,0,1-1,3h2.88a5.39,5.39,0,0,0,.88-3V10.34H96.33Z"/><path class="cls-1" d="M73.77,32.69H82.5A2.07,2.07,0,0,0,84,32.08a2.11,2.11,0,0,0,.62-1.49v-3.7H73.77ZM76.58,29h5.21v1a.56.56,0,0,1-.17.4.53.53,0,0,1-.39.16H76.58Z"/></g></g></svg>